<svg xmlns="http://www.w3.org/2000/svg" viewBox="0 0 154 102.11">
  <defs>
    <style>
      .cls-1 {
        fill: #fff;
      }

      .cls-2 {
        fill: none;
        stroke: #fff;
        stroke-miterlimit: 10;
        stroke-width: 4px;
      }
    </style>
  </defs>
  <g id="Layer_2" data-name="Layer 2">
    <path class="cls-1" d="M186.42,157.67c7.79-6.52,15.82-12.72,23.92-18.8,4-3.08,8.15-6,12.22-9,2-1.51,4.11-3,6.17-4.44l3.09-2.21.81-.57a6.36,6.36,0,0,1,1.17-.65,7.13,7.13,0,0,1,2.62-.54A7,7,0,0,1,239,122a6.36,6.36,0,0,1,1.17.65l.81.57,3.09,2.21,6.17,4.43c4.07,3,8.19,6,12.22,9,8.1,6.09,16.13,12.29,23.92,18.81-8.76-5.16-17.28-10.65-25.72-16.26-4.25-2.77-8.4-5.66-12.61-8.49l-6.24-4.34-3.11-2.17-.75-.52a2.87,2.87,0,0,0-.49-.26,2.88,2.88,0,0,0-2.16,0,2.87,2.87,0,0,0-.49.26l-.75.52L231,128.58c-2.08,1.44-4.14,2.91-6.24,4.33-4.2,2.84-8.36,5.72-12.6,8.5C203.69,147,195.17,152.5,186.42,157.67Z" transform="translate(-159.42 -88.95)"/>
  </g>
  <g id="Layer_1" data-name="Layer 1">
    <g>
      <rect class="cls-2" x="52" y="2" width="50" height="31.4" rx="12"/>
      <rect class="cls-2" x="2" y="68.72" width="50" height="31.4" rx="12"/>
      <rect class="cls-2" x="102" y="68.72" width="50" height="31.4" rx="12"/>
    </g>
  </g>
</svg>
